<svg width="80" height="80" viewBox="0 0 80 80" fill="none" xmlns="http://www.w3.org/2000/svg">
<path fill-rule="evenodd" clip-rule="evenodd" d="M40.7908 78.2047C62.3434 78.2047 79.8152 60.7329 79.8152 39.1803C79.8152 17.6278 62.3434 0.156013 40.7908 0.156013C19.2382 0.156013 1.76639 17.6278 1.76639 39.1803C1.76639 60.7329 19.2382 78.2047 40.7908 78.2047ZM52.965 18.3352C53.5576 16.2303 51.5149 14.9855 49.6493 16.3146L23.6066 34.8673C21.5834 36.3087 21.9016 39.1803 24.0847 39.1803H30.9424V39.1272H44.3079L33.4175 42.9698L28.6166 60.0256C28.024 62.1306 30.0665 63.3752 31.9323 62.0461L57.975 43.4935C59.9982 42.0521 59.6798 39.1803 57.4969 39.1803H47.0973L52.965 18.3352Z" fill="white"/>
</svg>
